<svg id="behance-ikona" xmlns="http://www.w3.org/2000/svg" xmlns:xlink="http://www.w3.org/1999/xlink" width="35.502" height="22.257" viewBox="0 0 35.502 22.257">
  <defs>
    <clipPath id="clip-path">
      <rect id="Rectangle_22" data-name="Rectangle 22" width="35.502" height="22.257" fill="#fff"/>
    </clipPath>
  </defs>
  <g id="Group_13" data-name="Group 13" clip-path="url(#clip-path)">
    <path id="Path_20" data-name="Path 20" d="M18.288,15.5c0,4.438-3.729,6.342-7.7,6.342H0V0H10.3c3.743,0,6.986,1.06,6.986,5.412A4.68,4.68,0,0,1,14.3,9.973,5.264,5.264,0,0,1,18.288,15.5M4.8,8.827h4.87c1.712,0,2.927-.746,2.927-2.6,0-2.009-1.562-2.5-3.293-2.5H4.8Zm8.684,6.41c0-2.239-1.339-3.12-3.452-3.12H4.8v6.016H9.937c1.955,0,3.55-.691,3.55-2.9m21.98-.26H24.057c0,2.533,1.338,4.025,3.883,4.025,1.32,0,3.021-.715,3.434-2.065h3.833c-1.177,3.618-3.622,5.319-7.4,5.319-4.992,0-8.092-3.377-8.092-8.3,0-4.746,3.274-8.369,8.092-8.369,4.961,0,7.7,3.9,7.7,8.58,0,.277-.018.555-.036.813M32.033,1.146H23.176V3.3h8.857Zm-.9,11.095c-.185-2.1-1.282-3.377-3.462-3.377a3.393,3.393,0,0,0-3.606,3.377Z" transform="translate(0 0)" fill="#fff"/>
  </g>
</svg>
