<svg id="instagram-ikona" xmlns="http://www.w3.org/2000/svg" xmlns:xlink="http://www.w3.org/1999/xlink" width="22.689" height="22.686" viewBox="0 0 22.689 22.686">
  <defs>
    <clipPath id="clip-path">
      <rect id="Rectangle_20" data-name="Rectangle 20" width="22.689" height="22.685" fill="#fff"/>
    </clipPath>
  </defs>
  <g id="Group_9" data-name="Group 9" clip-path="url(#clip-path)">
    <path id="Path_17" data-name="Path 17" d="M22.609,16.02a6.761,6.761,0,0,1-1.831,4.754,6.714,6.714,0,0,1-4.754,1.832c-1.872.106-7.487.106-9.36,0a6.769,6.769,0,0,1-4.752-1.832A6.719,6.719,0,0,1,.079,16.02c-.105-1.872-.105-7.486,0-9.36A6.734,6.734,0,0,1,1.912,1.908,6.74,6.74,0,0,1,6.664.081c1.872-.107,7.487-.107,9.36,0a6.758,6.758,0,0,1,4.754,1.832,6.7,6.7,0,0,1,1.831,4.753c.107,1.873.107,7.482,0,9.354m-1.964-4.677c0-1.65.137-5.194-.456-6.687A3.828,3.828,0,0,0,18.034,2.5c-1.489-.587-5.037-.456-6.689-.456S6.153,1.908,4.66,2.5A3.825,3.825,0,0,0,2.5,4.656c-.588,1.489-.456,5.037-.456,6.687s-.137,5.194.456,6.687A3.827,3.827,0,0,0,4.66,20.186c1.489.587,5.037.456,6.686.456s5.195.136,6.689-.456a3.824,3.824,0,0,0,2.155-2.157c.593-1.487.456-5.037.456-6.687m-3.482,0a5.815,5.815,0,1,1-5.817-5.816,5.806,5.806,0,0,1,5.817,5.816m-2.035,0a3.78,3.78,0,1,0-3.782,3.782,3.784,3.784,0,0,0,3.782-3.782M17.4,3.932a1.357,1.357,0,1,0,1.357,1.357A1.357,1.357,0,0,0,17.4,3.932" transform="translate(0 0)" fill="#fff"/>
  </g>
</svg>
