<svg id="logo" xmlns="http://www.w3.org/2000/svg" xmlns:xlink="http://www.w3.org/1999/xlink" width="118.074" height="55" viewBox="0 0 118.074 55">
  <defs>
    <clipPath id="clip-path">
      <rect id="Rectangle_3" data-name="Rectangle 3" width="118.074" height="55"/>
    </clipPath>
  </defs>
  <g id="Group_1" data-name="Group 1" clip-path="url(#clip-path)">
    <path id="Path_1" data-name="Path 1" d="M8.748,132.632a8.016,8.016,0,0,0-2.643-.65l-.857-.073a1.838,1.838,0,0,1-1.2-.44,1.234,1.234,0,0,1-.346-.879,1.307,1.307,0,0,1,.191-.7,1.275,1.275,0,0,1,.565-.485,2.177,2.177,0,0,1,.92-.174,2.152,2.152,0,0,1,.993.211,1.521,1.521,0,0,1,.629.577,1.545,1.545,0,0,1,.218.806H10.5a4.4,4.4,0,0,0-.6-2.317,4,4,0,0,0-1.74-1.547,6.355,6.355,0,0,0-2.779-.549,6.41,6.41,0,0,0-2.624.495,3.881,3.881,0,0,0-1.722,1.428,4.024,4.024,0,0,0-.61,2.253,3.826,3.826,0,0,0,1.221,2.967,5.416,5.416,0,0,0,3.281,1.3l.857.073a3.738,3.738,0,0,1,1.658.412,1.022,1.022,0,0,1,.492.906,1.221,1.221,0,0,1-.264.788,1.7,1.7,0,0,1-.766.513,3.543,3.543,0,0,1-1.212.183,3.538,3.538,0,0,1-1.349-.22,1.706,1.706,0,0,1-.793-.614,1.526,1.526,0,0,1-.264-.87H0a4.255,4.255,0,0,0,.647,2.335,4.362,4.362,0,0,0,1.914,1.6,7.428,7.428,0,0,0,3.125.586,7.451,7.451,0,0,0,2.961-.531,4.285,4.285,0,0,0,1.9-1.5,3.917,3.917,0,0,0,.665-2.271,3.619,3.619,0,0,0-.656-2.2,4.466,4.466,0,0,0-1.8-1.419" transform="translate(0 -85.553)"/>
    <path id="Path_2" data-name="Path 2" d="M69.937,136.744a3.655,3.655,0,0,1-2.16.623,3.762,3.762,0,0,1-1.458-.266,2.876,2.876,0,0,1-1.084-.778,3.419,3.419,0,0,1-.675-1.227,5.815,5.815,0,0,1,0-3.223,3.487,3.487,0,0,1,.656-1.218,2.882,2.882,0,0,1,1.057-.778,3.5,3.5,0,0,1,1.412-.275,3.731,3.731,0,0,1,1.494.284,2.8,2.8,0,0,1,1.075.8,2.622,2.622,0,0,1,.547,1.209h3.39a5.849,5.849,0,0,0-1-2.866,5.777,5.777,0,0,0-2.269-1.923,7.307,7.307,0,0,0-3.235-.687A7.1,7.1,0,0,0,64.7,127a6.11,6.11,0,0,0-2.123,1.575,6.607,6.607,0,0,0-1.257,2.207,7.736,7.736,0,0,0-.41,2.482v.4a7.426,7.426,0,0,0,.4,2.344,7.084,7.084,0,0,0,1.239,2.244,6.2,6.2,0,0,0,2.132,1.667,7,7,0,0,0,3.1.632,7.155,7.155,0,0,0,3.353-.742,6,6,0,0,0,3.262-4.734H71a2.493,2.493,0,0,1-1.066,1.667" transform="translate(-41.316 -85.553)"/>
    <path id="Path_3" data-name="Path 3" d="M141.529,128.575A6.629,6.629,0,0,0,139.278,127a8.478,8.478,0,0,0-6.2,0,6.629,6.629,0,0,0-3.617,3.782,7.034,7.034,0,0,0-.455,2.482v.4a6.873,6.873,0,0,0,.437,2.344,7.127,7.127,0,0,0,1.33,2.243,6.628,6.628,0,0,0,2.242,1.667,8.23,8.23,0,0,0,6.324,0,6.628,6.628,0,0,0,2.242-1.667,7.285,7.285,0,0,0,1.34-2.243,6.755,6.755,0,0,0,.446-2.344v-.4a6.911,6.911,0,0,0-.464-2.482,6.834,6.834,0,0,0-1.376-2.207m-1.84,6.437a3.6,3.6,0,0,1-.747,1.236,3.387,3.387,0,0,1-1.185.824,4.34,4.34,0,0,1-3.135,0,3.384,3.384,0,0,1-1.185-.824,3.6,3.6,0,0,1-.747-1.236,4.458,4.458,0,0,1-.255-1.529,4.71,4.71,0,0,1,.255-1.594,3.4,3.4,0,0,1,.747-1.227,3.317,3.317,0,0,1,1.185-.788,4.226,4.226,0,0,1,1.567-.274,4.177,4.177,0,0,1,1.549.274,3.319,3.319,0,0,1,1.184.788,3.506,3.506,0,0,1,.757,1.227,4.57,4.57,0,0,1,.264,1.594,4.466,4.466,0,0,1-.255,1.529" transform="translate(-87.513 -85.552)"/>
    <path id="Path_4" data-name="Path 4" d="M213.1,134.692a4.323,4.323,0,0,0,.683-2.5V131.9a4.46,4.46,0,0,0-.674-2.518,4.158,4.158,0,0,0-1.932-1.538,7.776,7.776,0,0,0-2.989-.522h-5.522V140.8h3.39v-4.1h1.93l2.7,4.1h3.9l-3.261-4.681a4.1,4.1,0,0,0,1.775-1.427m-7.044-4.514h2.333a2.146,2.146,0,0,1,1.039.238,1.7,1.7,0,0,1,.683.678,2.1,2.1,0,0,1,.246,1.044,2.064,2.064,0,0,1-.246,1.026,1.7,1.7,0,0,1-.683.677,2.138,2.138,0,0,1-1.039.238h-2.333Z" transform="translate(-137.475 -86.166)"/>
    <rect id="Rectangle_2" data-name="Rectangle 2" width="3.39" height="13.369" transform="translate(85.998 41.265)"/>
    <path id="Path_5" data-name="Path 5" d="M309.589,127.661l-4.264,13.369h3.39l.939-3.095h5.312l.965,3.095h3.5l-4.41-13.369Zm.909,7.49,1.44-4.743h.681l1.479,4.743Z" transform="translate(-207.116 -86.396)"/>
    <path id="Path_6" data-name="Path 6" d="M162.825,24.038V0h-20.5V27.472h20.5ZM159.408,6.868H149.157v6.868h3.417V10.3h6.834V24.038H145.74V20.6h10.251V13.736h-3.417V17.17H145.74V3.435h13.668Z" transform="translate(-96.544 -0.001)"/>
    <path id="Path_7" data-name="Path 7" d="M352.508,128.376h.639V130.2h.509v-1.827h.639v-.449h-1.787Z" transform="translate(-239.123 -86.576)"/>
    <path id="Path_8" data-name="Path 8" d="M361.091,127.927l-.512,1.278h-.059L360,127.927h-.7V130.2h.465v-1.746l.524,1.285h.484l.527-1.3v1.76h.5v-2.276Z" transform="translate(-243.73 -86.577)"/>
  </g>
</svg>
