<svg width="32" height="32" viewBox="0 0 32 32" fill="none" xmlns="http://www.w3.org/2000/svg">
<path d="M24.0999 2.07227L29.6639 7.87227V29.9283H8.87891V30.0003H29.7349V7.94527L24.0999 2.07227Z" fill="#909090"/>
<path d="M24.0316 2H8.80859V29.928H29.6646V7.873L24.0316 2Z" fill="#F4F4F4"/>
<path d="M8.65562 3.5H2.26562V10.327H22.3656V3.5H8.65562Z" fill="#7A7B7C"/>
<path d="M22.4715 10.2109H2.39453V3.37891H22.4715V10.2109Z" fill="#DD2025"/>
<path d="M9.05114 4.53368H7.74414V9.33367H8.77214V7.71468L8.99914 7.72768C9.21979 7.72464 9.43841 7.6851 9.64614 7.61068C9.82876 7.54867 9.99661 7.4496 10.1391 7.31968C10.2853 7.19712 10.4001 7.04148 10.4741 6.86568C10.5754 6.57439 10.6112 6.26438 10.5791 5.95768C10.5734 5.73853 10.535 5.52146 10.4651 5.31368C10.4022 5.16348 10.3085 5.02809 10.1902 4.91617C10.0719 4.80424 9.93158 4.71824 9.77814 4.66368C9.64586 4.61468 9.50876 4.57982 9.36914 4.55968C9.26367 4.5425 9.157 4.53381 9.05014 4.53368M8.86114 6.82768H8.77214V5.34768H8.96514C9.05032 5.34153 9.13579 5.35461 9.21524 5.38594C9.29469 5.41727 9.36608 5.46605 9.42414 5.52868C9.54446 5.68969 9.60873 5.88568 9.60714 6.08668C9.60714 6.33268 9.60714 6.55568 9.38514 6.71268C9.22525 6.80075 9.04317 6.84136 8.86114 6.82768ZM12.5321 4.52068C12.4211 4.52068 12.3131 4.52868 12.2371 4.53168L11.9991 4.53768H11.2191V9.33768H12.1371C12.4879 9.3467 12.8371 9.28726 13.1651 9.16268C13.4293 9.05837 13.663 8.88957 13.8451 8.67168C14.0236 8.45283 14.151 8.19696 14.2181 7.92268C14.297 7.6126 14.3353 7.29361 14.3321 6.97368C14.3517 6.59583 14.3225 6.21704 14.2451 5.84668C14.1711 5.57437 14.0341 5.32328 13.8451 5.11368C13.6969 4.94419 13.5146 4.80788 13.3101 4.71368C13.135 4.63247 12.9506 4.57271 12.7611 4.53568C12.6858 4.52332 12.6095 4.51763 12.5331 4.51868M12.3511 8.45568H12.2511V5.39168H12.2641C12.4703 5.36784 12.6789 5.40504 12.8641 5.49868C12.9998 5.607 13.1103 5.74348 13.1881 5.89868C13.2721 6.06201 13.3205 6.24128 13.3301 6.42468C13.3391 6.64468 13.3301 6.82468 13.3301 6.97368C13.3338 7.1453 13.3228 7.31693 13.2971 7.48668C13.2657 7.66074 13.2087 7.82922 13.1281 7.98668C13.0371 8.13352 12.9127 8.25685 12.7651 8.34668C12.6419 8.42668 12.4957 8.46393 12.3491 8.45268M17.4291 4.53768H14.9991V9.33768H16.0271V7.43368H17.3271V6.54168H16.0271V5.42968H17.4271V4.53768" fill="#464648"/>
<path d="M21.7807 20.2545C21.7807 20.2545 24.9687 19.6765 24.9687 20.7655C24.9687 21.8545 22.9937 21.4115 21.7807 20.2545ZM19.4237 20.3375C18.9171 20.4491 18.4235 20.613 17.9507 20.8265L18.3507 19.9265C18.7507 19.0265 19.1657 17.7995 19.1657 17.7995C19.6418 18.6036 20.1972 19.3581 20.8237 20.0515C20.3521 20.1218 19.8847 20.2179 19.4237 20.3395V20.3375ZM18.1617 13.8375C18.1617 12.8885 18.4687 12.6295 18.7077 12.6295C18.9467 12.6295 19.2157 12.7445 19.2247 13.5685C19.1467 14.3971 18.9732 15.2138 18.7077 16.0025C18.3427 15.3408 18.1543 14.5962 18.1607 13.8405L18.1617 13.8375ZM13.5127 24.3535C12.5347 23.7685 15.5637 21.9675 16.1127 21.9095C16.1097 21.9105 14.5367 24.9655 13.5127 24.3535ZM25.8997 20.8945C25.8897 20.7945 25.7997 19.6875 23.8297 19.7345C23.0085 19.7201 22.1877 19.778 21.3767 19.9075C20.5906 19.1163 19.9139 18.2233 19.3647 17.2525C19.7105 16.2518 19.92 15.2091 19.9877 14.1525C19.9587 12.9525 19.6717 12.2645 18.7517 12.2745C17.8317 12.2845 17.6977 13.0895 17.8187 14.2875C17.9371 15.0926 18.1607 15.8786 18.4837 16.6255C18.4837 16.6255 18.0587 17.9485 17.4967 19.2645C16.9347 20.5805 16.5507 21.2705 16.5507 21.2705C15.5733 21.5883 14.6532 22.061 13.8257 22.6705C13.0017 23.4375 12.6667 24.0265 13.1007 24.6155C13.4747 25.1235 14.7837 25.2385 15.9537 23.7055C16.5743 22.913 17.1422 22.0805 17.6537 21.2135C17.6537 21.2135 19.4377 20.7245 19.9927 20.5905C20.5477 20.4565 21.2187 20.3505 21.2187 20.3505C21.2187 20.3505 22.8477 21.9895 24.4187 21.9315C25.9897 21.8735 25.9137 20.9925 25.9037 20.8965" fill="#DD2025"/>
<path d="M23.9531 2.07715V7.95015H29.5861L23.9531 2.07715Z" fill="#909090"/>
<path d="M24.0312 2V7.873H29.6642L24.0312 2Z" fill="#F4F4F4"/>
<path d="M8.97497 4.45653H7.66797V9.25653H8.69997V7.63853L8.92797 7.65153C9.14861 7.64849 9.36723 7.60895 9.57497 7.53453C9.75759 7.47252 9.92543 7.37345 10.068 7.24353C10.213 7.12063 10.3268 6.96502 10.4 6.78953C10.5012 6.49824 10.5371 6.18823 10.505 5.88153C10.4993 5.66238 10.4608 5.44531 10.391 5.23753C10.328 5.08734 10.2344 4.95194 10.1161 4.84002C9.99778 4.72809 9.85741 4.64209 9.70397 4.58753C9.57108 4.53806 9.4333 4.50286 9.29297 4.48253C9.1875 4.46535 9.08083 4.45666 8.97397 4.45653M8.78497 6.75053H8.69597V5.27053H8.88997C8.97515 5.26438 9.06062 5.27746 9.14007 5.30879C9.21952 5.34012 9.29091 5.3889 9.34897 5.45153C9.46929 5.61254 9.53356 5.80853 9.53197 6.00953C9.53197 6.25553 9.53197 6.47853 9.30997 6.63553C9.15008 6.7236 8.968 6.76321 8.78597 6.74953M12.456 4.44353C12.345 4.44353 12.237 4.45153 12.161 4.45453L11.926 4.46053H11.146V9.26053H12.064C12.4148 9.26955 12.7639 9.21011 13.092 9.08553C13.3561 8.98122 13.5899 8.81242 13.772 8.59453C13.9504 8.37568 14.0778 8.11981 14.145 7.84553C14.2238 7.53545 14.2622 7.21646 14.259 6.89653C14.2785 6.51868 14.2493 6.13989 14.172 5.76953C14.0979 5.49722 13.9609 5.24613 13.772 5.03653C13.6238 4.86704 13.4415 4.73073 13.237 4.63653C13.0618 4.55533 12.8775 4.49556 12.688 4.45853C12.6126 4.44618 12.5363 4.44049 12.46 4.44153M12.278 8.37853H12.178V5.31453H12.191C12.3971 5.29069 12.6058 5.32789 12.791 5.42153C12.9266 5.52985 13.0372 5.66633 13.115 5.82153C13.1989 5.98486 13.2473 6.16413 13.257 6.34753C13.266 6.56753 13.257 6.74753 13.257 6.89653C13.2607 7.06816 13.2496 7.23979 13.224 7.40953C13.1925 7.58359 13.1356 7.75207 13.055 7.90953C12.9639 8.05637 12.8396 8.1797 12.692 8.26953C12.5687 8.34953 12.4225 8.38678 12.276 8.37553M17.353 4.46053H14.923V9.26053H15.951V7.35653H17.251V6.46453H15.951V5.35253H17.351V4.46053" fill="white"/>
</svg>
